HIERARCHY
ROOT root
{
	OFFSET 0.000000 0.000000 0.000000
	CHANNELS 6 Xposition Yposition Zposition Zrotation Yrotation Xrotation
	JOINT lhip
	{
		OFFSET 0.058581 -0.082280 -0.017664
		CHANNELS 3 Zrotation Yrotation Xrotation
		JOINT lknee
		{
			OFFSET 0.043451 -0.386469 0.008037
			CHANNELS 3 Zrotation Yrotation Xrotation
			JOINT lankle
			{
				OFFSET -0.014790 -0.426874 -0.037428
				CHANNELS 3 Zrotation Yrotation Xrotation
				JOINT ltoe
				{
					OFFSET 0.041054 -0.060286 0.122042
					CHANNELS 3 Zrotation Yrotation Xrotation
					End Site
					{
						OFFSET 0.000000 0.000000 0.000000
					}
				}
			}
		}
	}
	JOINT rhip
	{
		OFFSET -0.060310 -0.090513 -0.013543
		CHANNELS 3 Zrotation Yrotation Xrotation
		JOINT rknee
		{
			OFFSET -0.043257 -0.383688 -0.004843
			CHANNELS 3 Zrotation Yrotation Xrotation
			JOINT rankle
			{
				OFFSET 0.019056 -0.420046 -0.034562
				CHANNELS 3 Zrotation Yrotation Xrotation
				JOINT rtoe
				{
					OFFSET -0.034840 -0.062106 0.130323
					CHANNELS 3 Zrotation Yrotation Xrotation
					End Site
					{
						OFFSET 0.000000 0.000000 0.000000
					}
				}
			}
		}
	}
	JOINT lowerback
	{
		OFFSET 0.004439 0.124404 -0.038385
		CHANNELS 3 Zrotation Yrotation Xrotation
		JOINT upperback
		{
			OFFSET 0.004488 0.137956 0.026820
			CHANNELS 3 Zrotation Yrotation Xrotation
			JOINT chest
			{
				OFFSET -0.002265 0.056032 0.002855
				CHANNELS 3 Zrotation Yrotation Xrotation
				JOINT lowerneck
				{
					OFFSET -0.013390 0.211636 -0.033468
					CHANNELS 3 Zrotation Yrotation Xrotation
					JOINT upperneck
					{
						OFFSET 0.010113 0.088937 0.050410
						CHANNELS 3 Zrotation Yrotation Xrotation
						End Site
						{
							OFFSET 0.000000 0.000000 0.000000
						}
					}
				}
				JOINT lclavicle
				{
					OFFSET 0.071702 0.114000 -0.018898
					CHANNELS 3 Zrotation Yrotation Xrotation
					JOINT lshoulder
					{
						OFFSET 0.122921 0.045205 -0.019046
						CHANNELS 3 Zrotation Yrotation Xrotation
						JOINT lelbow
						{
							OFFSET 0.255332 -0.015649 -0.022946
							CHANNELS 3 Zrotation Yrotation Xrotation
							JOINT lwrist
							{
								OFFSET 0.265709 0.012698 -0.007375
								CHANNELS 3 Zrotation Yrotation Xrotation
								End Site
								{
									OFFSET 0.000000 0.000000 0.000000
								}
							}
						}
					}
				}
				JOINT rclavicle
				{
					OFFSET -0.082954 0.112472 -0.023707
					CHANNELS 3 Zrotation Yrotation Xrotation
					JOINT rshoulder
					{
						OFFSET -0.113228 0.046853 -0.008472
						CHANNELS 3 Zrotation Yrotation Xrotation
						JOINT relbow
						{
							OFFSET -0.260127 -0.014369 -0.031269
							CHANNELS 3 Zrotation Yrotation Xrotation
							JOINT rwrist
							{
								OFFSET -0.269108 0.006794 -0.006027
								CHANNELS 3 Zrotation Yrotation Xrotation
								End Site
								{
									OFFSET 0.000000 0.000000 0.000000
								}
							}
						}
					}
				}
			}
		}
	}
}
MOTION
Frames: 11
Frame Time: 0.033333
0.336174 0.169032 0.992599 91.222315 1.465921 110.110467 8.300627 5.843729 -29.144598 -3.001837 2.328837 13.606556 -4.328124 4.399513 0.381975 0.000000 -0.000000 0.000000 -2.793441 -6.449507 -22.787510 2.157647 -5.038340 2.985887 5.731658 -6.602406 0.127216 0.000000 -0.000000 0.000000 2.977371 7.653125 20.507558 6.440708 2.689958 8.691657 4.934203 8.198554 -3.103066 -13.010550 -3.099648 6.948551 4.502813 -18.463019 -23.251844 0.977096 -11.798426 -13.498375 -43.130189 -40.541069 23.197317 101.480008 -87.446057 -88.046117 5.277710 -13.125558 -12.917894 12.060919 17.189435 -0.947816 15.168255 25.785922 -2.856324 -18.861882 33.453813 -8.464991 -6.994282 10.818891 4.742459 
0.335827 0.171275 0.992316 91.504416 1.540725 110.155116 8.319852 5.668850 -29.436265 -2.963397 2.382995 14.003134 -4.257553 4.225537 0.362426 0.000000 -0.000000 0.000000 -2.836244 -6.596787 -22.645536 2.214811 -5.194840 2.749685 5.852846 -6.531379 0.292773 0.000000 -0.000000 0.000000 2.875102 7.905892 20.326409 6.479851 2.629349 9.195175 4.905272 8.268987 -3.197223 -12.797961 -2.670468 6.715607 5.067477 -19.194722 -23.623046 1.582683 -12.136644 -13.649994 -42.672597 -42.201507 22.624507 89.947501 -86.681760 -76.812248 4.098076 -13.464912 -12.154825 12.168392 17.152029 -0.390704 16.025173 24.650901 -2.885077 -19.864779 33.853641 -9.877892 -6.465337 10.434461 4.742339 
0.335449 0.173312 0.992107 91.712578 1.654176 110.214690 8.320990 5.533988 -29.649183 -2.850279 2.378566 14.232049 -4.170526 4.124511 0.337999 0.000000 -0.000000 0.000000 -2.827381 -6.641959 -22.613211 2.221314 -5.352374 2.658153 5.979967 -6.532982 0.396618 0.000000 -0.000000 0.000000 2.727000 8.105057 20.164784 6.483609 2.668484 9.693251 4.824505 8.413583 -3.216300 -12.582408 -2.415156 6.461127 5.844604 -19.929724 -24.190492 2.194686 -12.381753 -13.842667 -42.254688 -43.892754 22.171853 83.620055 -85.998385 -70.728228 3.110613 -13.720482 -11.714424 12.293058 16.973896 0.282235 17.002243 23.547460 -2.975615 -20.991152 34.447486 -11.198228 -6.173157 10.308675 4.417557 
0.335142 0.175345 0.991920 91.885324 1.820810 110.225425 8.392829 5.495115 -29.785515 -2.820578 2.408984 14.432318 -4.211031 4.021959 0.097806 0.000000 -0.000000 0.000000 -2.797523 -6.619119 -22.524911 2.241348 -5.475733 2.538301 6.134007 -6.554732 0.491574 0.000000 -0.000000 0.000000 2.512519 8.252163 20.360816 6.454339 2.802504 9.746790 4.798297 8.608430 -3.219313 -12.351469 -2.118549 6.372323 6.816181 -20.576416 -24.845871 2.897066 -12.454645 -13.949854 -42.322633 -45.612676 21.994628 78.964550 -85.194588 -66.246289 2.155347 -13.848642 -11.611506 12.439929 16.665117 0.917986 18.112719 22.474330 -2.880623 -21.988522 35.001214 -11.869048 -6.007829 10.242864 4.402499 
0.334568 0.177741 0.991724 92.034906 1.967803 110.241203 8.381413 5.456407 -29.946297 -2.738628 2.426487 14.643455 -4.175304 3.936327 0.035804 0.000000 -0.000000 0.000000 -2.810431 -6.614409 -22.501423 2.259639 -5.593943 2.497208 6.317264 -6.568984 0.586484 0.000000 -0.000000 0.000000 2.453799 8.517086 20.336777 6.391323 2.874190 10.205033 4.713921 8.718293 -3.228391 -12.152207 -1.946177 6.218436 7.855389 -21.319362 -25.694282 3.544375 -12.644282 -14.125619 -42.371565 -47.299212 21.747843 74.747815 -84.369533 -62.002450 1.462923 -13.862080 -11.422436 12.386765 16.366534 1.546409 19.235307 21.460689 -3.019386 -23.098553 35.835704 -12.992947 -5.771802 9.678896 3.777710 
0.333896 0.180466 0.991125 92.424607 1.952272 110.493347 8.286742 5.117729 -30.480032 -2.624203 2.469435 14.996480 -4.137894 3.788032 -0.001000 0.000000 -0.000000 0.000000 -2.976482 -6.745102 -22.655236 2.301663 -5.828322 2.427655 6.493158 -6.605395 0.675797 0.000000 -0.000000 0.000000 2.370619 8.744409 20.146026 6.318997 2.678702 10.584913 4.578156 8.828089 -3.355554 -12.015250 -1.850707 6.059275 8.917932 -21.898371 -26.412624 4.161231 -12.680700 -14.240717 -42.800843 -49.015621 21.896319 71.220579 -83.609497 -58.525004 1.356005 -13.552732 -11.666913 12.482095 15.970018 2.286618 20.318772 20.431651 -2.981628 -24.148060 36.800400 -14.041361 -5.926255 9.365935 2.967947 
0.333472 0.182466 0.990726 92.635868 2.022329 110.569743 8.298423 5.029983 -30.751767 -2.588427 2.599617 15.336834 -4.122824 3.523091 0.011559 0.000000 -0.000000 0.000000 -3.050911 -6.783711 -22.651679 2.343403 -6.078035 2.415245 6.643630 -6.492594 0.732327 0.000000 -0.000000 0.000000 2.145520 8.944739 20.067289 6.250055 2.744543 11.171319 4.444589 8.920015 -3.577715 -11.726750 -1.475600 5.941916 10.064336 -22.667544 -27.388165 4.639528 -12.800925 -14.440156 -43.076359 -50.757554 21.843780 66.592531 -82.443966 -54.032524 -0.206296 -13.946176 -10.537989 12.680135 15.706818 3.062015 21.481936 19.382315 -2.882451 -25.373865 37.386002 -15.011007 -5.491246 9.629854 2.768575 
0.333115 0.183971 0.990690 92.819052 2.264969 110.477270 8.494852 5.154432 -30.776334 -2.668270 2.579831 15.542372 -4.188674 3.343763 -0.229235 0.000000 -0.000000 0.000000 -2.835895 -6.772654 -22.489167 2.272924 -6.104066 2.377914 6.725238 -6.479216 0.792027 0.000000 -0.000000 0.000000 1.836852 9.136483 20.305881 6.344444 2.994863 11.451129 4.464987 9.073757 -3.670657 -11.643469 -1.417920 5.782995 11.247819 -23.439574 -28.419969 5.103555 -13.027050 -14.510809 -43.695015 -52.460636 22.159410 63.415528 -81.282695 -50.903181 -0.880231 -13.828577 -10.434677 12.903472 15.447120 3.578524 22.593881 18.294891 -2.783224 -26.561427 38.083256 -16.054569 -5.217179 9.476933 2.131556 
0.332441 0.186362 0.990125 93.191524 2.335976 110.616755 8.507061 4.981834 -31.194496 -2.636618 2.648019 15.929724 -4.188287 3.099881 -0.344612 0.000000 -0.000000 0.000000 -2.913854 -6.829266 -22.546487 2.311684 -6.400692 2.379463 6.849550 -6.415135 0.771642 0.000000 -0.000000 0.000000 1.756881 9.295083 20.111698 6.325029 2.923369 11.973676 4.318930 9.119945 -3.777570 -11.613573 -1.209818 5.664472 12.454814 -24.034578 -29.386175 5.575326 -13.205384 -14.524107 -44.305422 -54.213286 22.303370 59.365116 -80.078597 -46.856595 -1.489205 -13.809744 -10.134422 13.100874 15.098490 4.174404 23.910166 17.553242 -2.962040 -27.739542 38.743490 -17.256287 -5.099158 9.412761 1.933582 
0.331782 0.188386 0.989897 93.370239 2.320291 110.692033 8.370820 4.875072 -31.407158 -2.574612 2.702903 16.140980 -4.202495 2.936512 -0.411895 0.000000 -0.000000 0.000000 -3.092097 -6.835170 -22.580623 2.338612 -6.615902 2.426825 6.946706 -6.318113 0.788937 0.000000 -0.000000 0.000000 1.656499 9.736715 19.996654 6.121183 2.958240 13.197024 4.112692 8.982570 -4.584085 -11.345981 -0.866938 5.531001 13.567882 -24.531625 -30.428615 6.045300 -13.510122 -14.501075 -44.654494 -55.968601 22.316222 55.842767 -78.762968 -43.268661 -2.248657 -13.857817 -9.632161 13.278108 14.889720 4.794460 25.425991 16.712976 -2.888834 -29.217148 39.293261 -18.393474 -5.222911 9.470426 1.234721 
0.331124 0.190457 0.989417 93.594965 2.407973 110.787304 8.384670 4.805398 -31.649279 -2.597307 2.767617 16.377725 -4.162628 2.807842 -0.527921 0.000000 -0.000000 0.000000 -3.135423 -6.820587 -22.593831 2.337374 -6.769397 2.421093 7.075404 -6.278004 0.782532 0.000000 -0.000000 0.000000 1.511921 10.070592 20.066700 6.033186 2.962717 13.738087 4.040694 8.897091 -5.066597 -11.155616 -0.579229 5.399685 14.451063 -25.005839 -31.049937 6.543290 -13.779255 -14.418994 -45.429328 -57.528795 22.550345 52.710177 -77.377153 -40.090408 -2.946103 -13.834185 -9.053816 13.452449 14.675672 5.161566 26.777002 15.908355 -2.736987 -30.208318 39.954106 -18.998767 -5.062092 9.224054 0.393348 
